<svg width="1000" height="420" viewBox="0 0 1000 420" fill="none" xmlns="http://www.w3.org/2000/svg">
  <defs>
    <linearGradient id="bg" x1="0" y1="0" x2="1000" y2="520" gradientUnits="userSpaceOnUse">
      <stop stop-color="#F8FAFD"/>
      <stop offset="1" stop-color="#F8F1E7"/>
    </linearGradient>
    <filter id="softShadow" x="-20" y="-20" width="1040" height="560" filterUnits="userSpaceOnUse" color-interpolation-filters="sRGB">
      <feDropShadow dx="0" dy="12" stdDeviation="14" flood-color="#182A45" flood-opacity="0.10"/>
    </filter>
  </defs>
  <rect width="1000" height="420" rx="32" fill="url(#bg)"/>
  <text x="48" y="58" fill="#233146" font-family="Inter, Arial, sans-serif" font-size="30" font-weight="800">Kwafa, liqa, sannan duba address</text>
  <rect x="48" y="104" width="260" height="238" rx="24" fill="#FFFFFF" stroke="#E1E8F1" stroke-width="2"/>
  <text x="76" y="145" fill="#37557A" font-family="Inter, Arial, sans-serif" font-size="17" font-weight="800">An kwafa daga notes</text>
  <text x="76" y="190" fill="#203048" font-family="IBM Plex Mono, monospace" font-size="18" font-weight="700">0x7bA9...14F0...C622</text>
  <rect x="76" y="226" width="204" height="44" rx="14" fill="#EEF4FB"/>
  <text x="178" y="254" text-anchor="middle" fill="#355B88" font-family="Inter, Arial, sans-serif" font-size="17" font-weight="800">Kwafa address</text>
  <rect x="76" y="286" width="204" height="32" rx="12" fill="#F7FAFD"/>
  <text x="178" y="307" text-anchor="middle" fill="#52677D" font-family="Inter, Arial, sans-serif" font-size="14" font-weight="700">Asali</text>
  <path d="M316 224H380" stroke="#355B88" stroke-width="5" stroke-linecap="round"/>
  <path d="M362 206L390 224L362 242" stroke="#355B88" stroke-width="5" stroke-linecap="round" stroke-linejoin="round"/>
  <rect x="390" y="142" width="220" height="164" rx="24" fill="#FFF2F0" stroke="#E8D8D5" stroke-width="2"/>
  <text x="420" y="183" fill="#9B4334" font-family="Inter, Arial, sans-serif" font-size="17" font-weight="800">Harin clipboard</text>
  <text x="420" y="222" fill="#5A2B26" font-family="Inter, Arial, sans-serif" font-size="24" font-weight="800">Abin da aka liqa</text>
  <text x="420" y="252" fill="#5A2B26" font-family="Inter, Arial, sans-serif" font-size="24" font-weight="800">na iya canzawa</text>
  <text x="420" y="282" fill="#6B3B34" font-family="Inter, Arial, sans-serif" font-size="16">Kada ka dogara da kwafi kawai.</text>
  <path d="M618 224H682" stroke="#9B4334" stroke-width="5" stroke-linecap="round"/>
  <path d="M664 206L692 224L664 242" stroke="#9B4334" stroke-width="5" stroke-linecap="round" stroke-linejoin="round"/>
  <rect x="692" y="104" width="260" height="238" rx="24" fill="#FFFFFF" stroke="#E1E8F1" stroke-width="2"/>
  <text x="720" y="145" fill="#37557A" font-family="Inter, Arial, sans-serif" font-size="17" font-weight="800">An liqa a fom din aika</text>
  <text x="720" y="190" fill="#8A3731" font-family="IBM Plex Mono, monospace" font-size="18" font-weight="700">0x7bA9...93D4...C622</text>
  <rect x="720" y="226" width="204" height="58" rx="15" fill="#FFF4E8"/>
  <text x="742" y="250" fill="#8A5E16" font-family="Inter, Arial, sans-serif" font-size="16" font-weight="800">Karanta address da ka liqa</text>
  <text x="742" y="271" fill="#8A5E16" font-family="Inter, Arial, sans-serif" font-size="16" font-weight="800">duba address</text>
  <text x="720" y="318" fill="#223045" font-family="Inter, Arial, sans-serif" font-size="18" font-weight="800">Kar ka duba farko da karshe kadai.</text>
</svg>
