<svg direction="rtl" unicode-bidi="plaintext" width="1044" height="630" viewBox="78 78 1044 630" fill="none" xmlns="http://www.w3.org/2000/svg">
  <defs>
    <linearGradient id="bg" x1="90" y1="48" x2="1118" y2="720" gradientUnits="userSpaceOnUse">
      <stop stop-color="#F7FAFD"/>
      <stop offset="1" stop-color="#F9F3E7"/>
    </linearGradient>
    <filter id="shadow" x="88" y="74" width="1024" height="612" filterUnits="userSpaceOnUse" color-interpolation-filters="sRGB">
      <feDropShadow dx="0" dy="18" stdDeviation="18" flood-color="#182A45" flood-opacity="0.12"/>
    </filter>
  </defs>
  <rect width="1200" height="760" rx="36" fill="url(#bg)"/>
  <g filter="url(#shadow)">
    <rect x="110" y="90" width="980" height="578" rx="28" fill="#FFFFFF"/>
  </g>
  <rect x="110" y="90" width="980" height="70" rx="28" fill="#F4F7FB"/>
  <text x="148" y="132" fill="#4F6177" font-family="Inter, Arial, sans-serif" font-size="18" font-weight="700">مراجعة أخيرة قبل الإرسال</text>

  <rect x="160" y="196" width="560" height="408" rx="24" fill="#FBFCFE" stroke="#E2E9F1" stroke-width="2"/>
  <text x="198" y="242" fill="#1F2B40" font-family="Inter, Arial, sans-serif" font-size="32" font-weight="800">راجع تفاصيل التحويل</text>

  <rect x="198" y="280" width="484" height="62" rx="18" fill="#FFFFFF" stroke="#E2E9F1" stroke-width="2"/>
  <text x="224" y="318" fill="#6A798B" font-family="Inter, Arial, sans-serif" font-size="16" font-weight="700">الأصل</text>
  <text x="632" y="318" text-anchor="end" fill="#1D2940" font-family="Inter, Arial, sans-serif" font-size="20" font-weight="800">USDT</text>

  <rect x="198" y="354" width="484" height="62" rx="18" fill="#FFFFFF" stroke="#E2E9F1" stroke-width="2"/>
  <text x="224" y="392" fill="#6A798B" font-family="Inter, Arial, sans-serif" font-size="16" font-weight="700">الشبكة</text>
  <text x="632" y="392" text-anchor="end" fill="#1D2940" font-family="Inter, Arial, sans-serif" font-size="20" font-weight="800">ERC20</text>

  <rect x="198" y="428" width="484" height="78" rx="18" fill="#FFFFFF" stroke="#E2E9F1" stroke-width="2"/>
  <text x="224" y="466" fill="#6A798B" font-family="Inter, Arial, sans-serif" font-size="16" font-weight="700">عنوان المستلم</text>
  <text x="224" y="494" fill="#1D2940" font-family="IBM Plex Mono, monospace" font-size="18" font-weight="700">0x7bA9...14F0...C622</text>

  <rect x="198" y="518" width="232" height="62" rx="18" fill="#FFFFFF" stroke="#E2E9F1" stroke-width="2"/>
  <text x="224" y="556" fill="#6A798B" font-family="Inter, Arial, sans-serif" font-size="16" font-weight="700">المبلغ</text>
  <text x="426" y="556" text-anchor="end" fill="#1D2940" font-family="Inter, Arial, sans-serif" font-size="20" font-weight="800">150.00</text>

  <rect x="450" y="518" width="232" height="62" rx="18" fill="#FFFFFF" stroke="#E2E9F1" stroke-width="2"/>
  <text x="476" y="556" fill="#6A798B" font-family="Inter, Arial, sans-serif" font-size="16" font-weight="700">رسوم الشبكة</text>
  <text x="632" y="556" text-anchor="end" fill="#1D2940" font-family="Inter, Arial, sans-serif" font-size="20" font-weight="800">$5.80</text>

  <rect x="760" y="196" width="280" height="408" rx="24" fill="#F5F0E4"/>
  <text x="794" y="242" fill="#6E5421" font-family="Inter, Arial, sans-serif" font-size="18" font-weight="800">قائمة تحقق سريعة</text>
  <g>
    <circle cx="808" cy="300" r="15" fill="#C7AB54"/>
    <path d="M801 300.5L806 306L816 294" stroke="#FFFFFF" stroke-width="4" stroke-linecap="round" stroke-linejoin="round"/>
    <text x="836" y="306" fill="#213044" font-family="Inter, Arial, sans-serif" font-size="21" font-weight="700">الأصل مطابق</text>
  </g>
  <g>
    <circle cx="808" cy="364" r="15" fill="#6AA4D4"/>
    <path d="M801 364.5L806 370L816 358" stroke="#FFFFFF" stroke-width="4" stroke-linecap="round" stroke-linejoin="round"/>
    <text x="836" y="370" fill="#213044" font-family="Inter, Arial, sans-serif" font-size="21" font-weight="700">الشبكة مطابقة</text>
  </g>
  <g>
    <circle cx="808" cy="428" r="15" fill="#88B889"/>
    <path d="M801 428.5L806 434L816 422" stroke="#FFFFFF" stroke-width="4" stroke-linecap="round" stroke-linejoin="round"/>
    <text x="836" y="434" fill="#213044" font-family="Inter, Arial, sans-serif" font-size="21" font-weight="700">تم فحص العنوان</text>
  </g>
  <g>
    <circle cx="808" cy="492" r="15" fill="#D0867C"/>
    <path d="M801 492.5L806 498L816 486" stroke="#FFFFFF" stroke-width="4" stroke-linecap="round" stroke-linejoin="round"/>
    <text x="836" y="498" fill="#213044" font-family="Inter, Arial, sans-serif" font-size="21" font-weight="700">اختبر بمبلغ صغير</text>
  </g>
  <rect x="794" y="532" width="212" height="54" rx="14" fill="#FFFFFF"/>
  <text x="816" y="555" fill="#6F5B34" font-family="Inter, Arial, sans-serif" font-size="15" font-weight="700">اقرأ العنوان الملصق</text>
  <text x="816" y="576" fill="#6F5B34" font-family="Inter, Arial, sans-serif" font-size="15" font-weight="700">مرة أخرى.</text>
</svg>
