<svg xmlns="http://www.w3.org/2000/svg" viewBox="0 0 1200 760" role="img" aria-labelledby="title desc">
  <title id="title">Beginner buy screen mock UI</title>
  <desc id="desc">An original training purchase screen showing asset, price, fee, network, and storage planning areas.</desc>
  <defs>
    <linearGradient id="panel" x1="0" x2="0" y1="0" y2="1">
      <stop offset="0" stop-color="#ffffff"/>
      <stop offset="1" stop-color="#f3f7fb"/>
    </linearGradient>
    <linearGradient id="accent" x1="0" x2="1" y1="0" y2="1">
      <stop offset="0" stop-color="#eff5fb"/>
      <stop offset="1" stop-color="#e4edf7"/>
    </linearGradient>
    <filter id="shadow" x="-20%" y="-20%" width="140%" height="140%">
      <feDropShadow dx="0" dy="16" stdDeviation="18" flood-color="#18324d" flood-opacity=".10"/>
    </filter>
  </defs>
  <rect width="1200" height="760" rx="30" fill="#eef4fb"/>
  <g filter="url(#shadow)" transform="translate(108 76)">
    <rect width="984" height="608" rx="28" fill="url(#panel)" stroke="#d7e3ee"/>
    <rect x="32" y="28" width="920" height="58" rx="18" fill="#f6f9fc" stroke="#e3ecf4"/>
    <circle cx="68" cy="57" r="9" fill="#d9e5f0"/>
    <rect x="96" y="48" width="180" height="18" rx="9" fill="#d9e5f0"/>
    <rect x="740" y="44" width="92" height="26" rx="13" fill="#edf4fb" stroke="#bfd2e5"/>
    <rect x="846" y="44" width="92" height="26" rx="13" fill="#edf4fb" stroke="#bfd2e5"/>
    <g transform="translate(42 122)">
      <rect width="436" height="438" rx="24" fill="#fbfdff" stroke="#e0e9f2"/>
      <rect x="24" y="24" width="128" height="24" rx="12" fill="#dfeaf4"/>
      <rect x="24" y="68" width="388" height="112" rx="20" fill="url(#accent)" stroke="#d7e3ee"/>
      <circle cx="82" cy="124" r="34" fill="#ffe49a" stroke="#e3c263"/>
      <path d="M62 124h40" stroke="#7b5a1f" stroke-width="9" stroke-linecap="round"/>
      <rect x="136" y="98" width="148" height="18" rx="9" fill="#355b83" opacity=".92"/>
      <rect x="136" y="129" width="110" height="14" rx="7" fill="#8ca7c2"/>
      <rect x="136" y="153" width="86" height="12" rx="6" fill="#c1d0df"/>
      <g transform="translate(24 210)">
        <rect width="388" height="72" rx="18" fill="#fff" stroke="#e0e9f2"/>
        <circle cx="30" cy="36" r="14" fill="#edf4fb" stroke="#bfd2e5"/>
        <path d="M24 36h12M30 30v12" stroke="#2b577f" stroke-width="4" stroke-linecap="round"/>
        <rect x="58" y="21" width="182" height="12" rx="6" fill="#8ca7c2"/>
        <rect x="58" y="42" width="120" height="10" rx="5" fill="#c1d0df"/>
        <rect x="304" y="22" width="58" height="28" rx="14" fill="#edf7f3" stroke="#bfd9ca"/>
      </g>
      <g transform="translate(24 298)">
        <rect width="388" height="72" rx="18" fill="#fff" stroke="#e0e9f2"/>
        <circle cx="30" cy="36" r="14" fill="#fff4e2" stroke="#e9d4ac"/>
        <path d="M23 41l7-11 7 11" fill="none" stroke="#8e6f2d" stroke-width="4" stroke-linecap="round" stroke-linejoin="round"/>
        <rect x="58" y="21" width="150" height="12" rx="6" fill="#8ca7c2"/>
        <rect x="58" y="42" width="144" height="10" rx="5" fill="#c1d0df"/>
        <rect x="262" y="20" width="100" height="30" rx="15" fill="#f5efe2" stroke="#ddc899"/>
      </g>
      <g transform="translate(24 386)">
        <rect width="388" height="28" rx="14" fill="#1f3d61"/>
        <rect x="114" y="7" width="160" height="14" rx="7" fill="#fff" opacity=".88"/>
      </g>
    </g>
    <g transform="translate(528 122)">
      <rect width="382" height="438" rx="24" fill="#fbfdff" stroke="#e0e9f2"/>
      <rect x="26" y="28" width="148" height="24" rx="12" fill="#dfeaf4"/>
      <g transform="translate(26 82)">
        <rect width="330" height="76" rx="18" fill="#fff" stroke="#e0e9f2"/>
        <circle cx="34" cy="38" r="16" fill="#edf4fb" stroke="#bfd2e5"/>
        <path d="M25 38h18" stroke="#2b577f" stroke-width="5" stroke-linecap="round"/>
        <rect x="64" y="22" width="160" height="12" rx="6" fill="#365b83"/>
        <rect x="64" y="45" width="108" height="10" rx="5" fill="#9bb2c8"/>
        <rect x="250" y="23" width="84" height="28" rx="14" fill="#edf4fb" stroke="#bfd2e5"/>
      </g>
      <g transform="translate(26 174)">
        <rect width="330" height="76" rx="18" fill="#fff" stroke="#e0e9f2"/>
        <circle cx="34" cy="38" r="16" fill="#edf7f3" stroke="#bfd9ca"/>
        <path d="M25 38l6 6 12-14" fill="none" stroke="#2f6e51" stroke-width="5" stroke-linecap="round" stroke-linejoin="round"/>
        <rect x="64" y="22" width="156" height="12" rx="6" fill="#365b83"/>
        <rect x="64" y="45" width="140" height="10" rx="5" fill="#9bb2c8"/>
        <rect x="250" y="23" width="84" height="28" rx="14" fill="#edf7f3" stroke="#bfd9ca"/>
      </g>
      <g transform="translate(26 266)">
        <rect width="330" height="76" rx="18" fill="#fff" stroke="#e0e9f2"/>
        <circle cx="34" cy="38" r="16" fill="#fff4e2" stroke="#e9d4ac"/>
        <path d="M22 44h24M34 24v20" stroke="#8e6f2d" stroke-width="5" stroke-linecap="round"/>
        <rect x="64" y="22" width="170" height="12" rx="6" fill="#365b83"/>
        <rect x="64" y="45" width="132" height="10" rx="5" fill="#9bb2c8"/>
        <rect x="250" y="23" width="84" height="28" rx="14" fill="#f5efe2" stroke="#ddc899"/>
      </g>
      <g transform="translate(26 358)">
        <rect width="330" height="54" rx="16" fill="#f6f9fc" stroke="#e0e9f2"/>
        <rect x="18" y="18" width="84" height="18" rx="9" fill="#c7d6e5"/>
        <rect x="116" y="18" width="84" height="18" rx="9" fill="#c7d6e5"/>
        <rect x="214" y="18" width="98" height="18" rx="9" fill="#c7d6e5"/>
      </g>
    </g>
  </g>
</svg>
