<svg width="1000" height="410" viewBox="0 0 1000 410" fill="none" xmlns="http://www.w3.org/2000/svg">
  <defs>
    <linearGradient id="bg" x1="0" y1="0" x2="1000" y2="520" gradientUnits="userSpaceOnUse">
      <stop stop-color="#F8FAFD"/>
      <stop offset="1" stop-color="#F8F1E7"/>
    </linearGradient>
    <filter id="softShadow" x="-20" y="-20" width="1040" height="560" filterUnits="userSpaceOnUse" color-interpolation-filters="sRGB">
      <feDropShadow dx="0" dy="12" stdDeviation="14" flood-color="#182A45" flood-opacity="0.10"/>
    </filter>
  </defs>
  <rect width="1000" height="410" rx="32" fill="url(#bg)"/>
  <rect x="92" y="36" width="816" height="340" rx="28" fill="#FFFFFF" stroke="#E2E9F1" stroke-width="2"/>
  <text x="132" y="88" fill="#223045" font-family="Inter, Arial, sans-serif" font-size="28" font-weight="800">Kurtarma kelimelerini girme</text>
  <text x="132" y="118" fill="#68788C" font-family="Inter, Arial, sans-serif" font-size="17">Bir sayfa kurtarma kelimeleri isterse yazmadan dur.</text>
  <g fill="#FBFCFE" stroke="#E3EAF2" stroke-width="2">
    <rect x="132" y="152" width="154" height="46" rx="13"/><rect x="304" y="152" width="154" height="46" rx="13"/><rect x="476" y="152" width="154" height="46" rx="13"/><rect x="648" y="152" width="154" height="46" rx="13"/>
    <rect x="132" y="214" width="154" height="46" rx="13"/><rect x="304" y="214" width="154" height="46" rx="13"/><rect x="476" y="214" width="154" height="46" rx="13"/><rect x="648" y="214" width="154" height="46" rx="13"/>
    <rect x="132" y="276" width="154" height="46" rx="13"/><rect x="304" y="276" width="154" height="46" rx="13"/><rect x="476" y="276" width="154" height="46" rx="13"/><rect x="648" y="276" width="154" height="46" rx="13"/>
  </g>
  <rect x="132" y="334" width="520" height="48" rx="16" fill="#FFF2F0"/>
  <text x="160" y="365" fill="#9B4334" font-family="Inter, Arial, sans-serif" font-size="20" font-weight="800">Rastgele sayfaya kurtarma kelimesi yazma</text>
  <rect x="676" y="341" width="190" height="34" rx="17" fill="#182A45"/>
  <text x="771" y="364" text-anchor="middle" fill="#FFFFFF" font-family="Inter, Arial, sans-serif" font-size="15" font-weight="800">Kapat ve doğrula</text>
</svg>
