<svg xmlns="http://www.w3.org/2000/svg" viewBox="0 0 1200 720" role="img" aria-labelledby="title desc">
  <title id="title">Real versus fake site mock browser</title>
  <desc id="desc">An original browser mockup comparing a safer source check and a suspicious source check.</desc>
  <defs>
    <linearGradient id="safeBg" x1="0" x2="1" y1="0" y2="1">
      <stop offset="0" stop-color="#f1f8f4"/>
      <stop offset="1" stop-color="#e8f2eb"/>
    </linearGradient>
    <linearGradient id="riskBg" x1="0" x2="1" y1="0" y2="1">
      <stop offset="0" stop-color="#fbf3f1"/>
      <stop offset="1" stop-color="#f6e8e4"/>
    </linearGradient>
    <filter id="shadow" x="-20%" y="-20%" width="140%" height="140%">
      <feDropShadow dx="0" dy="14" stdDeviation="16" flood-color="#18324d" flood-opacity=".10"/>
    </filter>
  </defs>
  <rect width="1200" height="720" rx="28" fill="#eef4fb"/>
  <g filter="url(#shadow)">
    <g transform="translate(72 92)">
      <rect width="488" height="536" rx="28" fill="url(#safeBg)" stroke="#c8dfd2"/>
      <rect x="28" y="30" width="432" height="56" rx="18" fill="#fff" stroke="#dcebe1"/>
      <circle cx="54" cy="58" r="10" fill="#cfe4d7"/>
      <rect x="80" y="44" width="270" height="28" rx="14" fill="#edf7f3" stroke="#bfd9ca"/>
      <circle cx="100" cy="58" r="8" fill="#2f6e51"/>
      <path d="M95 58l4 4 7-9" fill="none" stroke="#fff" stroke-width="3" stroke-linecap="round" stroke-linejoin="round"/>
      <text x="118" y="64" font-family="IBM Plex Mono, monospace" font-size="15" fill="#2f6e51">academy-safe.io</text>
      <rect x="28" y="116" width="432" height="382" rx="24" fill="#fff" stroke="#dcebe1"/>
      <rect x="56" y="148" width="182" height="18" rx="9" fill="#355b83" opacity=".88"/>
      <rect x="56" y="182" width="340" height="116" rx="22" fill="#f3f8fc" stroke="#dde7f0"/>
      <rect x="78" y="208" width="112" height="12" rx="6" fill="#8ca7c2"/>
      <rect x="78" y="232" width="224" height="14" rx="7" fill="#355b83" opacity=".84"/>
      <rect x="78" y="258" width="160" height="10" rx="5" fill="#c0d0de"/>
      <rect x="56" y="328" width="160" height="16" rx="8" fill="#d9e7f2"/>
      <rect x="56" y="364" width="332" height="54" rx="16" fill="#edf7f3" stroke="#bfd9ca"/>
      <rect x="78" y="384" width="120" height="14" rx="7" fill="#2f6e51" opacity=".84"/>
    </g>
    <g transform="translate(640 92)">
      <rect width="488" height="536" rx="28" fill="url(#riskBg)" stroke="#ead0c8"/>
      <rect x="28" y="30" width="432" height="56" rx="18" fill="#fff" stroke="#edd9d4"/>
      <circle cx="54" cy="58" r="10" fill="#e9cbc4"/>
      <rect x="80" y="44" width="310" height="28" rx="14" fill="#fcf0ed" stroke="#e8c8c0"/>
      <path d="M99 49l9 18H90z" fill="#944334"/>
      <text x="118" y="64" font-family="IBM Plex Mono, monospace" font-size="15" fill="#944334">acadarny-safe.help</text>
      <rect x="28" y="116" width="432" height="382" rx="24" fill="#fff" stroke="#edd9d4"/>
      <rect x="56" y="148" width="182" height="18" rx="9" fill="#7d4650" opacity=".84"/>
      <rect x="56" y="182" width="340" height="116" rx="22" fill="#fbf3f1" stroke="#edd9d4"/>
      <rect x="78" y="208" width="112" height="12" rx="6" fill="#c5a9af"/>
      <rect x="78" y="232" width="224" height="14" rx="7" fill="#7d4650" opacity=".84"/>
      <rect x="78" y="258" width="176" height="10" rx="5" fill="#d7bec4"/>
      <rect x="56" y="328" width="160" height="16" rx="8" fill="#f0dedd"/>
      <rect x="56" y="364" width="332" height="54" rx="16" fill="#fff4e2" stroke="#e9d4ac"/>
      <rect x="78" y="384" width="150" height="14" rx="7" fill="#8e6f2d" opacity=".84"/>
    </g>
  </g>
</svg>
