<svg xmlns="http://www.w3.org/2000/svg" viewBox="0 0 1200 540" role="img" aria-labelledby="title desc">
  <title id="title">Before-send checklist card</title>
  <desc id="desc">An original transfer check card with five review rows for a beginner transfer.</desc>
  <defs>
    <linearGradient id="bg" x1="0" x2="1" y1="0" y2="1">
      <stop offset="0" stop-color="#f9fbfd"/>
      <stop offset="1" stop-color="#ebf3fa"/>
    </linearGradient>
    <filter id="shadow" x="-20%" y="-20%" width="140%" height="140%">
      <feDropShadow dx="0" dy="14" stdDeviation="16" flood-color="#18324d" flood-opacity=".10"/>
    </filter>
  </defs>
  <rect width="1200" height="540" rx="28" fill="url(#bg)"/>
  <g filter="url(#shadow)" transform="translate(122 68)">
    <rect width="956" height="404" rx="28" fill="#fff" stroke="#d7e3ee"/>
    <rect x="28" y="28" width="188" height="26" rx="13" fill="#edf4fb"/>
    <g transform="translate(42 92)">
      <g transform="translate(0 0)">
        <rect width="872" height="52" rx="18" fill="#f6f9fc" stroke="#e2ebf4"/>
        <circle cx="30" cy="26" r="13" fill="#1f3d61"/>
        <path d="M24 26h12M30 20v12" stroke="#fff" stroke-width="4" stroke-linecap="round"/>
        <rect x="58" y="18" width="178" height="16" rx="8" fill="#355b83" opacity=".88"/>
        <rect x="786" y="14" width="58" height="24" rx="12" fill="#edf7f3" stroke="#bfd9ca"/>
      </g>
      <g transform="translate(0 66)">
        <rect width="872" height="52" rx="18" fill="#f6f9fc" stroke="#e2ebf4"/>
        <circle cx="30" cy="26" r="13" fill="#1f3d61"/>
        <path d="M20 26l10-10 10 10-10 10z" fill="none" stroke="#fff" stroke-width="3" stroke-linejoin="round"/>
        <rect x="58" y="18" width="156" height="16" rx="8" fill="#355b83" opacity=".88"/>
        <rect x="786" y="14" width="58" height="24" rx="12" fill="#edf7f3" stroke="#bfd9ca"/>
      </g>
      <g transform="translate(0 132)">
        <rect width="872" height="52" rx="18" fill="#f6f9fc" stroke="#e2ebf4"/>
        <circle cx="30" cy="26" r="13" fill="#1f3d61"/>
        <path d="M22 30l8-14 8 14" fill="none" stroke="#fff" stroke-width="3.5" stroke-linecap="round" stroke-linejoin="round"/>
        <rect x="58" y="18" width="194" height="16" rx="8" fill="#355b83" opacity=".88"/>
        <rect x="786" y="14" width="58" height="24" rx="12" fill="#edf7f3" stroke="#bfd9ca"/>
      </g>
      <g transform="translate(0 198)">
        <rect width="872" height="52" rx="18" fill="#f6f9fc" stroke="#e2ebf4"/>
        <circle cx="30" cy="26" r="13" fill="#1f3d61"/>
        <path d="M22 26h16M26 20h8M26 32h8" stroke="#fff" stroke-width="3.5" stroke-linecap="round"/>
        <rect x="58" y="18" width="148" height="16" rx="8" fill="#355b83" opacity=".88"/>
        <rect x="786" y="14" width="58" height="24" rx="12" fill="#edf7f3" stroke="#bfd9ca"/>
      </g>
      <g transform="translate(0 264)">
        <rect width="872" height="52" rx="18" fill="#f6f9fc" stroke="#e2ebf4"/>
        <circle cx="30" cy="26" r="13" fill="#1f3d61"/>
        <path d="M21 26l7 7 11-14" fill="none" stroke="#fff" stroke-width="3.5" stroke-linecap="round" stroke-linejoin="round"/>
        <rect x="58" y="18" width="174" height="16" rx="8" fill="#355b83" opacity=".88"/>
        <rect x="786" y="14" width="58" height="24" rx="12" fill="#edf7f3" stroke="#bfd9ca"/>
      </g>
    </g>
  </g>
</svg>
