<svg xmlns="http://www.w3.org/2000/svg" viewBox="0 0 1200 640" role="img" aria-labelledby="title desc">
  <title id="title">Safer versus riskier first buy comparison</title>
  <desc id="desc">An original split comparison between safer and riskier beginner buying habits.</desc>
  <defs>
    <linearGradient id="safeBg" x1="0" x2="1" y1="0" y2="1">
      <stop offset="0" stop-color="#f1f8f4"/>
      <stop offset="1" stop-color="#e7f2ea"/>
    </linearGradient>
    <linearGradient id="riskBg" x1="0" x2="1" y1="0" y2="1">
      <stop offset="0" stop-color="#fcf3f1"/>
      <stop offset="1" stop-color="#f7e8e4"/>
    </linearGradient>
    <filter id="shadow" x="-20%" y="-20%" width="140%" height="140%">
      <feDropShadow dx="0" dy="14" stdDeviation="16" flood-color="#18324d" flood-opacity=".10"/>
    </filter>
  </defs>
  <rect width="1200" height="640" rx="28" fill="#edf4fb"/>
  <g filter="url(#shadow)">
    <g transform="translate(60 72)">
      <rect width="500" height="496" rx="28" fill="url(#safeBg)" stroke="#c8dfd2"/>
      <circle cx="84" cy="80" r="34" fill="#2f6e51"/>
      <path d="M66 80l12 12 24-28" fill="none" stroke="#fff" stroke-width="10" stroke-linecap="round" stroke-linejoin="round"/>
      <g transform="translate(48 150)">
        <rect width="404" height="88" rx="22" fill="#fff" stroke="#dcebe1"/>
        <circle cx="42" cy="44" r="18" fill="#edf7f3" stroke="#bfd9ca"/>
        <path d="M32 44l7 7 15-17" fill="none" stroke="#2f6e51" stroke-width="5" stroke-linecap="round" stroke-linejoin="round"/>
        <rect x="76" y="28" width="190" height="14" rx="7" fill="#355b83" opacity=".82"/>
        <rect x="76" y="50" width="124" height="10" rx="5" fill="#9bb2c8"/>
      </g>
      <g transform="translate(48 254)">
        <rect width="404" height="88" rx="22" fill="#fff" stroke="#dcebe1"/>
        <circle cx="42" cy="44" r="18" fill="#edf7f3" stroke="#bfd9ca"/>
        <path d="M32 44l7 7 15-17" fill="none" stroke="#2f6e51" stroke-width="5" stroke-linecap="round" stroke-linejoin="round"/>
        <rect x="76" y="28" width="206" height="14" rx="7" fill="#355b83" opacity=".82"/>
        <rect x="76" y="50" width="142" height="10" rx="5" fill="#9bb2c8"/>
      </g>
      <g transform="translate(48 358)">
        <rect width="404" height="88" rx="22" fill="#fff" stroke="#dcebe1"/>
        <circle cx="42" cy="44" r="18" fill="#edf7f3" stroke="#bfd9ca"/>
        <path d="M32 44l7 7 15-17" fill="none" stroke="#2f6e51" stroke-width="5" stroke-linecap="round" stroke-linejoin="round"/>
        <rect x="76" y="28" width="184" height="14" rx="7" fill="#355b83" opacity=".82"/>
        <rect x="76" y="50" width="158" height="10" rx="5" fill="#9bb2c8"/>
      </g>
    </g>
    <g transform="translate(640 72)">
      <rect width="500" height="496" rx="28" fill="url(#riskBg)" stroke="#e8c8c0"/>
      <circle cx="84" cy="80" r="34" fill="#944334"/>
      <path d="M66 62l36 36M102 62L66 98" stroke="#fff" stroke-width="10" stroke-linecap="round"/>
      <g transform="translate(48 150)">
        <rect width="404" height="88" rx="22" fill="#fff" stroke="#edd9d4"/>
        <circle cx="42" cy="44" r="18" fill="#fcf0ed" stroke="#e8c8c0"/>
        <path d="M31 33l22 22M53 33L31 55" stroke="#944334" stroke-width="5" stroke-linecap="round"/>
        <rect x="76" y="28" width="196" height="14" rx="7" fill="#7d4650" opacity=".84"/>
        <rect x="76" y="50" width="132" height="10" rx="5" fill="#c3a7af"/>
      </g>
      <g transform="translate(48 254)">
        <rect width="404" height="88" rx="22" fill="#fff" stroke="#edd9d4"/>
        <circle cx="42" cy="44" r="18" fill="#fcf0ed" stroke="#e8c8c0"/>
        <path d="M31 33l22 22M53 33L31 55" stroke="#944334" stroke-width="5" stroke-linecap="round"/>
        <rect x="76" y="28" width="178" height="14" rx="7" fill="#7d4650" opacity=".84"/>
        <rect x="76" y="50" width="118" height="10" rx="5" fill="#c3a7af"/>
      </g>
      <g transform="translate(48 358)">
        <rect width="404" height="88" rx="22" fill="#fff" stroke="#edd9d4"/>
        <circle cx="42" cy="44" r="18" fill="#fcf0ed" stroke="#e8c8c0"/>
        <path d="M31 33l22 22M53 33L31 55" stroke="#944334" stroke-width="5" stroke-linecap="round"/>
        <rect x="76" y="28" width="208" height="14" rx="7" fill="#7d4650" opacity=".84"/>
        <rect x="76" y="50" width="146" height="10" rx="5" fill="#c3a7af"/>
      </g>
    </g>
  </g>
</svg>
