<svg width="1000" height="450" viewBox="0 0 1000 450" fill="none" xmlns="http://www.w3.org/2000/svg">
  <defs>
    <linearGradient id="bg" x1="0" y1="0" x2="1000" y2="520" gradientUnits="userSpaceOnUse">
      <stop stop-color="#F8FAFD"/>
      <stop offset="1" stop-color="#F8F1E7"/>
    </linearGradient>
    <filter id="softShadow" x="-20" y="-20" width="1040" height="560" filterUnits="userSpaceOnUse" color-interpolation-filters="sRGB">
      <feDropShadow dx="0" dy="12" stdDeviation="14" flood-color="#182A45" flood-opacity="0.10"/>
    </filter>
  </defs>
  <rect width="1000" height="450" rx="32" fill="url(#bg)"/>
  <g filter="url(#softShadow)"><rect x="74" y="44" width="852" height="360" rx="26" fill="#FFFFFF"/></g>
  <rect x="74" y="44" width="852" height="54" rx="26" fill="#F4F7FB"/><circle cx="112" cy="72" r="7" fill="#E79084"/><circle cx="136" cy="72" r="7" fill="#E4C16A"/><circle cx="160" cy="72" r="7" fill="#83C5A2"/>
  <text x="202" y="78" fill="#4E5C70" font-family="Inter, Arial, sans-serif" font-size="17" font-weight="700">Varlık transferi</text>
  <rect x="120" y="128" width="310" height="234" rx="22" fill="#F6F9FD"/><text x="148" y="170" fill="#243247" font-family="Inter, Arial, sans-serif" font-size="26" font-weight="800">USDT transferi</text><text x="148" y="198" fill="#607084" font-family="Inter, Arial, sans-serif" font-size="16">Aynı varlık, farklı ağ.</text>
  <rect x="148" y="220" width="254" height="44" rx="14" fill="#FFFFFF" stroke="#E2E9F1" stroke-width="2"/><text x="170" y="247" fill="#708093" font-family="Inter, Arial, sans-serif" font-size="14" font-weight="700">Alıcı</text><text x="382" y="247" text-anchor="end" fill="#1E2940" font-family="Inter, Arial, sans-serif" font-size="15" font-weight="800">Kişisel cüzdan</text>
  <rect x="148" y="278" width="254" height="44" rx="14" fill="#FFFFFF" stroke="#E2E9F1" stroke-width="2"/><text x="170" y="305" fill="#708093" font-family="Inter, Arial, sans-serif" font-size="14" font-weight="700">Tutar</text><text x="382" y="305" text-anchor="end" fill="#1E2940" font-family="Inter, Arial, sans-serif" font-size="15" font-weight="800">150 USDT</text>
  <rect x="148" y="332" width="254" height="44" rx="14" fill="#FFF6E8"/><text x="170" y="359" fill="#8A5E16" font-family="Inter, Arial, sans-serif" font-size="15" font-weight="800">Yanlış ağ başarısız olabilir</text>
  <rect x="476" y="128" width="400" height="234" rx="22" fill="#FBFCFE" stroke="#E2E9F1" stroke-width="2"/><text x="508" y="170" fill="#243247" font-family="Inter, Arial, sans-serif" font-size="25" font-weight="800">Ağ seçimi</text>
  <rect x="508" y="194" width="336" height="52" rx="16" fill="#EAF3FF" stroke="#6A8FC9" stroke-width="2.5"/><text x="534" y="227" fill="#274A79" font-family="Inter, Arial, sans-serif" font-size="22" font-weight="800">ERC20</text><text x="704" y="216" fill="#51667F" font-family="Inter, Arial, sans-serif" font-size="14" font-weight="700">Ücret</text><text x="822" y="216" text-anchor="end" fill="#1E2940" font-family="Inter, Arial, sans-serif" font-size="16" font-weight="800">$6.40</text><text x="704" y="236" fill="#51667F" font-family="Inter, Arial, sans-serif" font-size="14" font-weight="700">Süre</text><text x="822" y="236" text-anchor="end" fill="#1E2940" font-family="Inter, Arial, sans-serif" font-size="16" font-weight="800">5-15 min</text>
  <rect x="508" y="258" width="336" height="52" rx="16" fill="#FFFFFF" stroke="#E2E9F1" stroke-width="2"/><text x="534" y="291" fill="#243247" font-family="Inter, Arial, sans-serif" font-size="22" font-weight="800">TRC20</text><text x="704" y="280" fill="#51667F" font-family="Inter, Arial, sans-serif" font-size="14" font-weight="700">Ücret</text><text x="822" y="280" text-anchor="end" fill="#1E2940" font-family="Inter, Arial, sans-serif" font-size="16" font-weight="800">$1.10</text><text x="704" y="300" fill="#51667F" font-family="Inter, Arial, sans-serif" font-size="14" font-weight="700">Süre</text><text x="822" y="300" text-anchor="end" fill="#1E2940" font-family="Inter, Arial, sans-serif" font-size="16" font-weight="800">1-3 min</text>
  <rect x="508" y="322" width="336" height="36" rx="13" fill="#EDF5EE"/><text x="532" y="345" fill="#2D6B49" font-family="Inter, Arial, sans-serif" font-size="15" font-weight="800">Cüzdanın desteklediği ağla eşleştir</text>
</svg>
