<svg xmlns="http://www.w3.org/2000/svg" viewBox="0 0 1200 360" role="img" aria-labelledby="title desc">
  <title id="title">First crypto buy flow</title>
  <desc id="desc">Five original educational cards showing a safer beginner buying flow.</desc>
  <defs>
    <linearGradient id="bg" x1="0" x2="1" y1="0" y2="1">
      <stop offset="0" stop-color="#f9fbfd"/>
      <stop offset="1" stop-color="#ecf3fa"/>
    </linearGradient>
    <linearGradient id="card" x1="0" x2="0" y1="0" y2="1">
      <stop offset="0" stop-color="#ffffff"/>
      <stop offset="1" stop-color="#f4f8fc"/>
    </linearGradient>
    <filter id="shadow" x="-20%" y="-20%" width="140%" height="140%">
      <feDropShadow dx="0" dy="10" stdDeviation="12" flood-color="#18324d" flood-opacity=".10"/>
    </filter>
  </defs>
  <rect width="1200" height="360" rx="28" fill="url(#bg)"/>
  <g stroke="#87a0ba" stroke-width="10" stroke-linecap="round" fill="none" opacity=".75">
    <path d="M219 175h60"/>
    <path d="M459 175h60"/>
    <path d="M699 175h60"/>
    <path d="M939 175h60"/>
  </g>
  <g fill="#87a0ba" opacity=".75">
    <path d="M275 161l20 14-20 14z"/>
    <path d="M515 161l20 14-20 14z"/>
    <path d="M755 161l20 14-20 14z"/>
    <path d="M995 161l20 14-20 14z"/>
  </g>
  <g filter="url(#shadow)">
    <g transform="translate(40 72)">
      <rect width="180" height="206" rx="24" fill="url(#card)" stroke="#d8e4ef"/>
      <circle cx="34" cy="34" r="18" fill="#1f3d61"/>
      <text x="34" y="40" font-family="IBM Plex Mono, monospace" font-size="18" text-anchor="middle" fill="#fff">1</text>
      <circle cx="90" cy="98" r="40" fill="#edf4fb" stroke="#bfd2e5"/>
      <path d="M72 103h36M90 82v42" stroke="#2b577f" stroke-width="10" stroke-linecap="round"/>
      <rect x="34" y="156" width="112" height="14" rx="7" fill="#355b83" opacity=".88"/>
      <rect x="34" y="179" width="82" height="10" rx="5" fill="#8ea8c2"/>
    </g>
    <g transform="translate(280 72)">
      <rect width="180" height="206" rx="24" fill="url(#card)" stroke="#d8e4ef"/>
      <circle cx="34" cy="34" r="18" fill="#8e6f2d"/>
      <text x="34" y="40" font-family="IBM Plex Mono, monospace" font-size="18" text-anchor="middle" fill="#fff">2</text>
      <rect x="50" y="60" width="80" height="96" rx="16" fill="#f5efe2" stroke="#d8c6a1"/>
      <circle cx="90" cy="102" r="21" fill="#fff"/>
      <path d="M78 102l9 9 17-20" fill="none" stroke="#98762f" stroke-width="8" stroke-linecap="round" stroke-linejoin="round"/>
      <rect x="34" y="156" width="112" height="14" rx="7" fill="#7a5a1e" opacity=".88"/>
      <rect x="34" y="179" width="86" height="10" rx="5" fill="#b49a65"/>
    </g>
    <g transform="translate(520 72)">
      <rect width="180" height="206" rx="24" fill="url(#card)" stroke="#d8e4ef"/>
      <circle cx="34" cy="34" r="18" fill="#2f6e51"/>
      <text x="34" y="40" font-family="IBM Plex Mono, monospace" font-size="18" text-anchor="middle" fill="#fff">3</text>
      <circle cx="90" cy="98" r="36" fill="#edf8f1" stroke="#c4dfcd"/>
      <circle cx="90" cy="98" r="22" fill="#ffe49a" stroke="#e2c262"/>
      <path d="M74 98h32" stroke="#7a5a1e" stroke-width="8" stroke-linecap="round"/>
      <rect x="34" y="156" width="112" height="14" rx="7" fill="#2f6e51" opacity=".88"/>
      <rect x="34" y="179" width="92" height="10" rx="5" fill="#84a994"/>
    </g>
    <g transform="translate(760 72)">
      <rect width="180" height="206" rx="24" fill="url(#card)" stroke="#d8e4ef"/>
      <circle cx="34" cy="34" r="18" fill="#7d4650"/>
      <text x="34" y="40" font-family="IBM Plex Mono, monospace" font-size="18" text-anchor="middle" fill="#fff">4</text>
      <circle cx="65" cy="92" r="16" fill="#eef4fb" stroke="#bfd2e5"/>
      <circle cx="115" cy="72" r="16" fill="#eef4fb" stroke="#bfd2e5"/>
      <circle cx="125" cy="118" r="16" fill="#eef4fb" stroke="#bfd2e5"/>
      <path d="M79 88l22-10M80 98l28 12M116 88l4 14" stroke="#2b577f" stroke-width="6" stroke-linecap="round"/>
      <rect x="34" y="156" width="112" height="14" rx="7" fill="#7d4650" opacity=".88"/>
      <rect x="34" y="179" width="86" height="10" rx="5" fill="#b68a93"/>
    </g>
    <g transform="translate(1000 72)">
      <rect width="160" height="206" rx="24" fill="url(#card)" stroke="#d8e4ef"/>
      <circle cx="34" cy="34" r="18" fill="#4f4a87"/>
      <text x="34" y="40" font-family="IBM Plex Mono, monospace" font-size="18" text-anchor="middle" fill="#fff">5</text>
      <rect x="52" y="66" width="56" height="76" rx="14" fill="#f1eeff" stroke="#cbc4ea"/>
      <path d="M80 70v18" stroke="#6c61b3" stroke-width="8" stroke-linecap="round"/>
      <rect x="64" y="92" width="32" height="34" rx="8" fill="#fff"/>
      <path d="M72 108h16" stroke="#6c61b3" stroke-width="7" stroke-linecap="round"/>
      <rect x="24" y="156" width="110" height="14" rx="7" fill="#4f4a87" opacity=".88"/>
      <rect x="24" y="179" width="82" height="10" rx="5" fill="#8f88bc"/>
    </g>
  </g>
</svg>
