<svg xmlns="http://www.w3.org/2000/svg" viewBox="0 0 1200 620" role="img" aria-labelledby="title desc">
  <title id="title">Warning sign card</title>
  <desc id="desc">An original warning sign card showing practical scam red flags.</desc>
  <defs>
    <linearGradient id="bg" x1="0" x2="1" y1="0" y2="1">
      <stop offset="0" stop-color="#fbf5f2"/>
      <stop offset="1" stop-color="#f6ebe7"/>
    </linearGradient>
    <filter id="shadow" x="-20%" y="-20%" width="140%" height="140%">
      <feDropShadow dx="0" dy="14" stdDeviation="16" flood-color="#18324d" flood-opacity=".10"/>
    </filter>
  </defs>
  <rect width="1200" height="620" rx="28" fill="#eef4fb"/>
  <g filter="url(#shadow)" transform="translate(108 70)">
    <rect width="984" height="480" rx="28" fill="url(#bg)" stroke="#ead3cc"/>
    <circle cx="88" cy="84" r="34" fill="#944334"/>
    <path d="M88 62v28M88 101v2" stroke="#fff" stroke-width="10" stroke-linecap="round"/>
    <g transform="translate(56 154)">
      <g transform="translate(0 0)">
        <rect width="872" height="46" rx="16" fill="#fff" stroke="#edd9d4"/>
        <circle cx="24" cy="23" r="10" fill="#fcf0ed" stroke="#e8c8c0"/>
        <path d="M24 16v10M24 31v1" stroke="#944334" stroke-width="4" stroke-linecap="round"/>
        <rect x="48" y="17" width="186" height="12" rx="6" fill="#7d4650" opacity=".84"/>
      </g>
      <g transform="translate(0 60)">
        <rect width="872" height="46" rx="16" fill="#fff" stroke="#edd9d4"/>
        <circle cx="24" cy="23" r="10" fill="#fcf0ed" stroke="#e8c8c0"/>
        <path d="M24 16v10M24 31v1" stroke="#944334" stroke-width="4" stroke-linecap="round"/>
        <rect x="48" y="17" width="230" height="12" rx="6" fill="#7d4650" opacity=".84"/>
      </g>
      <g transform="translate(0 120)">
        <rect width="872" height="46" rx="16" fill="#fff" stroke="#edd9d4"/>
        <circle cx="24" cy="23" r="10" fill="#fcf0ed" stroke="#e8c8c0"/>
        <path d="M24 16v10M24 31v1" stroke="#944334" stroke-width="4" stroke-linecap="round"/>
        <rect x="48" y="17" width="212" height="12" rx="6" fill="#7d4650" opacity=".84"/>
      </g>
      <g transform="translate(0 180)">
        <rect width="872" height="46" rx="16" fill="#fff" stroke="#edd9d4"/>
        <circle cx="24" cy="23" r="10" fill="#fcf0ed" stroke="#e8c8c0"/>
        <path d="M24 16v10M24 31v1" stroke="#944334" stroke-width="4" stroke-linecap="round"/>
        <rect x="48" y="17" width="206" height="12" rx="6" fill="#7d4650" opacity=".84"/>
      </g>
      <g transform="translate(0 240)">
        <rect width="872" height="46" rx="16" fill="#fff" stroke="#edd9d4"/>
        <circle cx="24" cy="23" r="10" fill="#fcf0ed" stroke="#e8c8c0"/>
        <path d="M24 16v10M24 31v1" stroke="#944334" stroke-width="4" stroke-linecap="round"/>
        <rect x="48" y="17" width="248" height="12" rx="6" fill="#7d4650" opacity=".84"/>
      </g>
    </g>
  </g>
</svg>
