<svg xmlns="http://www.w3.org/2000/svg" viewBox="0 0 1200 560" role="img" aria-labelledby="title desc">
  <title id="title">Address poisoning and clipboard swapping</title>
  <desc id="desc">An original flow diagram showing copied addresses, changed paste results, and misleading lookalike addresses.</desc>
  <defs>
    <linearGradient id="bg" x1="0" x2="1" y1="0" y2="1">
      <stop offset="0" stop-color="#f9fbfd"/>
      <stop offset="1" stop-color="#edf4fb"/>
    </linearGradient>
    <filter id="shadow" x="-20%" y="-20%" width="140%" height="140%">
      <feDropShadow dx="0" dy="14" stdDeviation="16" flood-color="#18324d" flood-opacity=".10"/>
    </filter>
  </defs>
  <rect width="1200" height="560" rx="28" fill="url(#bg)"/>
  <g filter="url(#shadow)">
    <g transform="translate(70 86)">
      <rect width="300" height="388" rx="28" fill="#fff" stroke="#d7e3ee"/>
      <rect x="30" y="32" width="128" height="20" rx="10" fill="#dfeaf4"/>
      <rect x="30" y="90" width="240" height="70" rx="20" fill="#f5f9fd" stroke="#dbe7f1"/>
      <rect x="54" y="115" width="160" height="14" rx="7" fill="#355b83" opacity=".88"/>
      <rect x="54" y="139" width="128" height="10" rx="5" fill="#a1b6cb"/>
      <rect x="30" y="196" width="240" height="70" rx="20" fill="#f5f9fd" stroke="#dbe7f1"/>
      <rect x="54" y="221" width="160" height="14" rx="7" fill="#355b83" opacity=".88"/>
      <rect x="54" y="245" width="128" height="10" rx="5" fill="#a1b6cb"/>
      <rect x="30" y="302" width="240" height="40" rx="20" fill="#1f3d61"/>
      <rect x="98" y="315" width="104" height="14" rx="7" fill="#fff" opacity=".86"/>
    </g>
    <g transform="translate(430 168)">
      <path d="M0 72h140" fill="none" stroke="#8aa2bc" stroke-width="12" stroke-linecap="round"/>
      <path d="M122 52l28 20-28 20" fill="#8aa2bc"/>
      <path d="M0 180h140" fill="none" stroke="#c98b7d" stroke-width="12" stroke-linecap="round"/>
      <path d="M122 160l28 20-28 20" fill="#c98b7d"/>
    </g>
    <g transform="translate(650 86)">
      <rect width="480" height="388" rx="28" fill="#fff" stroke="#d7e3ee"/>
      <rect x="34" y="34" width="132" height="20" rx="10" fill="#dfeaf4"/>
      <g transform="translate(34 92)">
        <rect width="412" height="80" rx="22" fill="#edf7f3" stroke="#bfd9ca"/>
        <circle cx="34" cy="40" r="16" fill="#2f6e51"/>
        <path d="M26 40l7 7 14-15" fill="none" stroke="#fff" stroke-width="5" stroke-linecap="round" stroke-linejoin="round"/>
        <rect x="68" y="26" width="176" height="14" rx="7" fill="#2f6e51" opacity=".84"/>
        <rect x="68" y="48" width="224" height="10" rx="5" fill="#8ab49b"/>
      </g>
      <g transform="translate(34 196)">
        <rect width="412" height="80" rx="22" fill="#fcf0ed" stroke="#e8c8c0"/>
        <circle cx="34" cy="40" r="16" fill="#944334"/>
        <path d="M25 29l18 22M43 29L25 51" stroke="#fff" stroke-width="5" stroke-linecap="round"/>
        <rect x="68" y="26" width="210" height="14" rx="7" fill="#944334" opacity=".84"/>
        <rect x="68" y="48" width="242" height="10" rx="5" fill="#c89b92"/>
      </g>
      <g transform="translate(34 300)">
        <rect width="412" height="54" rx="18" fill="#f6f9fc" stroke="#dbe7f1"/>
        <rect x="22" y="20" width="140" height="14" rx="7" fill="#c4d4e4"/>
        <rect x="176" y="20" width="120" height="14" rx="7" fill="#c4d4e4"/>
      </g>
    </g>
  </g>
</svg>
