<svg width="1000" height="480" viewBox="0 0 1000 480" fill="none" xmlns="http://www.w3.org/2000/svg">
  <defs>
    <linearGradient id="bg" x1="0" y1="0" x2="1000" y2="520" gradientUnits="userSpaceOnUse">
      <stop stop-color="#F8FAFD"/>
      <stop offset="1" stop-color="#F8F1E7"/>
    </linearGradient>
    <filter id="softShadow" x="-20" y="-20" width="1040" height="560" filterUnits="userSpaceOnUse" color-interpolation-filters="sRGB">
      <feDropShadow dx="0" dy="12" stdDeviation="14" flood-color="#182A45" flood-opacity="0.10"/>
    </filter>
  </defs>
  <rect width="1000" height="480" rx="32" fill="url(#bg)"/>
  <g filter="url(#softShadow)"><rect x="84" y="42" width="832" height="396" rx="26" fill="#FFFFFF"/></g>
  <rect x="84" y="42" width="832" height="56" rx="26" fill="#F3F6FA"/>
  <circle cx="122" cy="70" r="7" fill="#E79084"/><circle cx="146" cy="70" r="7" fill="#E4C16A"/><circle cx="170" cy="70" r="7" fill="#83C5A2"/>
  <text x="210" y="77" fill="#4F5E72" font-family="Inter, Arial, sans-serif" font-size="17" font-weight="700">Dijital varlık al</text>
  <rect x="126" y="128" width="260" height="268" rx="22" fill="#F6F1E7"/>
  <text x="154" y="166" fill="#6D5422" font-family="Inter, Arial, sans-serif" font-size="15" font-weight="700">Onaylamadan önce</text>
  <text x="154" y="202" fill="#1E2735" font-family="Inter, Arial, sans-serif" font-size="28" font-weight="800">Önce küçük başla</text>
  <text x="154" y="232" fill="#5D6775" font-family="Inter, Arial, sans-serif" font-size="17">Ücret, ödeme ve alınacak miktar</text>
  <text x="154" y="256" fill="#5D6775" font-family="Inter, Arial, sans-serif" font-size="17">tek ekranda görünmeli.</text>
  <rect x="154" y="282" width="204" height="42" rx="13" fill="#FFFFFF"/><circle cx="178" cy="303" r="8" fill="#C7AB54"/><text x="198" y="309" fill="#223045" font-family="Inter, Arial, sans-serif" font-size="16" font-weight="800">Önce ücreti kontrol et</text>
  <rect x="154" y="334" width="204" height="42" rx="13" fill="#FFFFFF"/><circle cx="178" cy="355" r="8" fill="#6CA7D4"/><text x="198" y="361" fill="#223045" font-family="Inter, Arial, sans-serif" font-size="16" font-weight="800">Basit tut</text>
  <rect x="424" y="118" width="432" height="292" rx="24" fill="#FFFFFF" stroke="#E4EAF1" stroke-width="2"/>
  <text x="456" y="162" fill="#223045" font-family="Inter, Arial, sans-serif" font-size="26" font-weight="800">Emri önizle</text>
  <text x="456" y="188" fill="#5A6678" font-family="Inter, Arial, sans-serif" font-size="16">Onay öncesi eğitim ekranı</text>
  <rect x="456" y="216" width="170" height="64" rx="16" fill="#F5F8FC"/><text x="478" y="244" fill="#68778A" font-family="Inter, Arial, sans-serif" font-size="14" font-weight="700">Varlık</text><text x="478" y="268" fill="#1D2940" font-family="Inter, Arial, sans-serif" font-size="24" font-weight="800">BTC</text>
  <rect x="648" y="216" width="176" height="64" rx="16" fill="#F5F8FC"/><text x="670" y="244" fill="#68778A" font-family="Inter, Arial, sans-serif" font-size="14" font-weight="700">Tutar</text><text x="670" y="268" fill="#1D2940" font-family="Inter, Arial, sans-serif" font-size="24" font-weight="800">$35.00</text>
  <rect x="456" y="294" width="368" height="48" rx="15" fill="#FBFCFE" stroke="#E4EAF1" stroke-width="2"/><text x="478" y="324" fill="#6A7788" font-family="Inter, Arial, sans-serif" font-size="15" font-weight="700">Tahmini alınacak</text><text x="800" y="324" text-anchor="end" fill="#1E2940" font-family="Inter, Arial, sans-serif" font-size="20" font-weight="800">0.00052 BTC</text>
  <rect x="456" y="356" width="174" height="42" rx="14" fill="#FBFCFE" stroke="#E4EAF1" stroke-width="2"/><text x="478" y="382" fill="#6A7788" font-family="Inter, Arial, sans-serif" font-size="14" font-weight="700">Ücret</text><text x="612" y="382" text-anchor="end" fill="#1E2940" font-family="Inter, Arial, sans-serif" font-size="18" font-weight="800">$0.70</text>
  <rect x="648" y="356" width="176" height="42" rx="14" fill="#FBFCFE" stroke="#E4EAF1" stroke-width="2"/><text x="670" y="382" fill="#6A7788" font-family="Inter, Arial, sans-serif" font-size="14" font-weight="700">Ödeme</text><text x="800" y="382" text-anchor="end" fill="#1E2940" font-family="Inter, Arial, sans-serif" font-size="18" font-weight="800">Kart</text>
</svg>
